<svg width="27" height="31" viewBox="0 0 27 31" fill="none" xmlns="http://www.w3.org/2000/svg">
<path d="M0.724609 1.7671C0.724609 10.9031 0.724609 19.8783 0.724609 28.6953C5.22635 24.2263 9.7472 19.7382 14.2259 15.2919C9.83465 10.8931 5.36983 6.42044 0.724609 1.7671ZM1.94372 0.726562C1.92722 0.786523 1.91046 0.846745 1.89397 0.906705C6.37947 5.38226 10.865 9.85781 15.2217 14.2051C16.4164 13.0258 17.7125 11.7467 19.062 10.4147C13.3791 7.19861 7.66142 3.96259 1.94372 0.726562ZM19.0623 20.3627C17.6905 18.9906 16.4101 17.7103 15.2785 16.5783C10.8553 20.9892 6.38549 25.4465 1.9157 29.9037C1.93089 29.9537 1.94633 30.0034 1.96152 30.0534C7.67739 26.8143 13.3933 23.5751 19.0623 20.3627ZM15.9095 15.1307C17.4967 16.7061 18.9347 18.1339 20.4089 19.597C22.0592 18.6558 23.8586 17.6739 25.6113 16.6147C26.7895 15.9028 26.8532 14.9633 25.7467 14.2713C24.085 13.2321 22.3624 12.2884 20.6398 11.3516C20.4214 11.233 19.9436 11.2874 19.7619 11.454C18.4171 12.6864 17.1171 13.9676 15.9095 15.1307Z" fill="#202020"/>
</svg>
